# xmcd
#
# Track frame offsets:
#	150
#	21487
#	39525
#	62577
#	84072
#	105845
#	119710
#	130922
#	152155
#	171122
#	191325
#	213835
#	233092
#	251337
#	273167
#
# Disc length: 3910 seconds
#
# Revision: 1
# Processed by: cddbd v1.4PL0 Copyright (c) Steve Scherf et al.
# Submitted via: CDmax 1.8
#
DISCID=bc0f440f
DTITLE=Ed Motta - Série Sem Limite - CD 1
DYEAR=1900
DGENRE=Blues
TTITLE0=Colombina
TTITLE1=Vendaval
TTITLE2=Você Mentiu pra Mim (You Fooled Me)
TTITLE3=Risos na Noite
TTITLE4=Daqui pro Méier
TTITLE5=Caso Sério (Ao Vivo)
TTITLE6=Mentiras Fáceis
TTITLE7=Jóia de Mágoa
TTITLE8=Dias de Paz
TTITLE9=Suddenly You
TTITLE10=Luna e Sera
TTITLE11=Birinaite
TTITLE12=Quais Serão Meus Desejos?
TTITLE13=Fora da Lei (Remix Tony Rato)
TTITLE14=Solução
EXTD=
EXTT0=
EXTT1=
EXTT2=
EXTT3=
EXTT4=
EXTT5=
EXTT6=
EXTT7=
EXTT8=
EXTT9=
EXTT10=
EXTT11=
EXTT12=
EXTT13=
EXTT14=
PLAYORDER=
